<svg width="48" height="48" viewBox="0 0 48 48" fill="none" xmlns="http://www.w3.org/2000/svg">
<rect width="48" height="48" fill="#111111"/>
<g clip-path="url(#clip0_1120_13222)">
<path d="M12.9764 27.0103L8.1926 22.0201H8.10544L8.09314 22.0827L8.10236 27.0103H7V21.0098H8.72482L12.9415 25.3948H13.0502L13.041 21.0098H14.1526V27.0103H12.9764Z" fill="white"/>
<path d="M21.5859 29.6663C20.4917 29.6663 20.3276 29.0273 20.3276 28.6467C20.3276 28.3431 20.5717 27.9215 21.0301 27.9215C21.3264 27.9215 21.7664 28.0969 21.7664 28.578C21.7664 28.7534 21.7202 28.8888 21.6054 29.0478L21.5664 29.1011H21.633C22.4083 29.1011 22.88 28.5 23.3732 26.8886C23.7732 25.5746 24.0716 24.3612 24.3341 23.2914L24.3474 23.238C24.4264 22.917 24.5012 22.6133 24.573 22.3333L24.5833 22.2913H23.3753L23.5783 21.6133H24.7771L24.8458 21.3455C25.1114 20.3362 25.5431 19.5864 26.2066 18.9874C26.6937 18.5422 27.229 18.334 27.8924 18.334C28.7251 18.334 29.1619 18.8817 29.1619 19.4223C29.1619 19.6633 28.921 20.1126 28.4605 20.1126C28.1713 20.1126 27.713 19.9464 27.713 19.5013C27.713 19.3997 27.755 19.291 27.8001 19.1751C27.8258 19.1094 27.8545 19.0346 27.875 18.9607L27.8852 18.9248L27.8483 18.9187C27.8135 18.9125 27.7847 18.9094 27.7581 18.9094C27.068 18.9094 26.5727 19.5741 26.1532 21.0635L26.0005 21.6133H27.4361L27.2156 22.2913H25.8148L25.8087 22.3169C25.7123 22.6862 25.6139 23.0749 25.5134 23.4698C25.2283 24.591 24.934 25.748 24.6561 26.6383C24.3208 27.7143 23.8603 28.4816 23.2481 28.9842C22.6667 29.4765 22.2011 29.6673 21.5889 29.6673L21.5859 29.6663Z" fill="white"/>
<path d="M17.8963 27.1512C17.3559 27.1512 16.9027 27.061 16.551 26.8845C16.1992 26.7081 15.9398 26.4691 15.7819 26.1727C15.6239 25.8763 15.5429 25.547 15.544 25.1962C15.544 24.8033 15.6219 24.4772 15.7747 24.2269C15.9264 23.9766 16.149 23.7868 16.4341 23.6617C16.7202 23.5366 17.0678 23.473 17.4687 23.474L20.3533 23.4771V23.3406C20.3533 22.995 20.2908 22.7026 20.1657 22.4749C20.0406 22.2462 19.8416 22.0759 19.575 21.9692C19.3084 21.8636 18.9505 21.8092 18.5096 21.8092C17.9333 21.8092 17.5077 21.9005 17.2442 22.0821C16.9806 22.2636 16.8114 22.5426 16.7981 22.8155L15.6547 22.7539C15.6619 22.3703 15.7901 21.9682 16.0095 21.6441C16.2126 21.3435 16.5274 21.1045 16.9427 20.9332C17.36 20.7619 17.8933 20.6758 18.5301 20.6758C19.1669 20.6758 19.7576 20.7937 20.2118 21.0245C20.6661 21.2553 21.0096 21.5825 21.2352 21.9959C21.4608 22.4103 21.5747 22.918 21.5736 23.5048L21.5706 27.0128H20.3513L20.3851 26.2896C20.3933 26.0793 20.3995 25.8834 20.4056 25.6988L20.34 25.6875C20.2559 25.9604 20.1329 26.2004 19.9739 26.4025C19.7863 26.6404 19.5207 26.8261 19.1843 26.9553C18.8469 27.0846 18.4142 27.1502 17.8994 27.1492L17.8963 27.1512ZM17.7743 24.4413C17.5067 24.4413 17.2913 24.4577 17.1324 24.4915C16.9734 24.5254 16.8535 24.591 16.7755 24.6843C16.6976 24.7787 16.6576 24.9295 16.6576 25.1336C16.6576 25.3808 16.7632 25.5921 16.9734 25.7624C17.1826 25.9327 17.5744 26.0188 18.1384 26.0188C18.6183 26.0188 19.0305 25.947 19.3638 25.8045C19.697 25.6608 19.9483 25.466 20.1093 25.2259C20.2703 24.9849 20.3523 24.7336 20.3523 24.4792V24.4454L20.3185 24.4433L17.7753 24.4402L17.7743 24.4413Z" fill="white"/>
<path d="M30.6879 27.1511C30.1475 27.1511 29.6943 27.0619 29.3415 26.8865C28.9888 26.7111 28.7303 26.4711 28.5724 26.1757C28.4135 25.8792 28.3335 25.551 28.3335 25.1992C28.3335 24.8063 28.4104 24.4801 28.5632 24.2299C28.715 23.9796 28.9365 23.7888 29.2215 23.6636C29.5076 23.5385 29.8553 23.4749 30.2562 23.4749H33.1408V23.3385C33.1408 22.9928 33.0773 22.7015 32.9521 22.4728C32.827 22.244 32.6281 22.0738 32.3605 21.9681C32.0938 21.8625 31.736 21.8091 31.294 21.8091C30.7177 21.8091 30.2921 21.9014 30.0286 22.083C29.765 22.2656 29.5969 22.5435 29.5835 22.8174L28.4401 22.7579C28.4473 22.3743 28.5745 21.9712 28.7929 21.6481C28.9959 21.3475 29.3097 21.1075 29.7261 20.9362C30.1424 20.7649 30.6767 20.6777 31.3135 20.6777C31.9503 20.6777 32.5409 20.7947 32.9962 21.0244C33.4505 21.2552 33.7951 21.5814 34.0207 21.9948C34.2463 22.4092 34.3601 22.9169 34.3601 23.5026V27.0106H33.1408L33.1736 26.2895C33.1808 26.0792 33.188 25.8833 33.1931 25.6987L33.1275 25.6874C33.0434 25.9603 32.9204 26.2003 32.7614 26.4024C32.5748 26.6403 32.3092 26.827 31.9728 26.9563C31.6355 27.0855 31.2037 27.1522 30.6879 27.1522V27.1511ZM30.5628 24.4412C30.2952 24.4412 30.0798 24.4586 29.9219 24.4924C29.763 24.5263 29.643 24.5919 29.5651 24.6863C29.4871 24.7807 29.4471 24.9315 29.4471 25.1356C29.4471 25.3828 29.5538 25.5941 29.763 25.7643C29.9722 25.9336 30.3639 26.0198 30.9279 26.0198C31.4078 26.0198 31.82 25.9469 32.1533 25.8033C32.4866 25.6597 32.7368 25.4648 32.8978 25.2238C33.0588 24.9827 33.1398 24.7314 33.1398 24.4771V24.4432L33.106 24.4412H30.5628Z" fill="white"/>
<path d="M35.7988 27.0103V21.0098H36.9976V26.0266H40.9999V27.0103H35.7988Z" fill="white"/>
</g>
<defs>
<clipPath id="clip0_1120_13222">
<rect width="34" height="11.3333" fill="white" transform="translate(7 18.334)"/>
</clipPath>
</defs>
</svg>
