<svg width="22" height="16" viewBox="0 0 22 16" fill="none" xmlns="http://www.w3.org/2000/svg">
<path fill-rule="evenodd" clip-rule="evenodd" d="M0 2.75C0 1.23579 1.23579 0 2.75 0H18.75C20.2642 0 21.5 1.23579 21.5 2.75V12.75C21.5 14.2642 20.2642 15.5 18.75 15.5H2.75C1.23579 15.5 0 14.2642 0 12.75V2.75ZM2.75 1.5C2.06421 1.5 1.5 2.06421 1.5 2.75V12.75C1.5 13.4358 2.06421 14 2.75 14H18.75C19.4358 14 20 13.4358 20 12.75V2.75C20 2.06421 19.4358 1.5 18.75 1.5H2.75Z" fill="#464A4D"/>
<path fill-rule="evenodd" clip-rule="evenodd" d="M20.75 6.5H0.75V5H20.75V6.5Z" fill="#464A4D"/>
<path fill-rule="evenodd" clip-rule="evenodd" d="M7.75 10.5H3.75V9H7.75V10.5Z" fill="#464A4D"/>
<path fill-rule="evenodd" clip-rule="evenodd" d="M13.75 10.5H9.75V9H13.75V10.5Z" fill="#464A4D"/>
</svg>
