<svg width="14" height="10" viewBox="0 0 14 10" fill="none" xmlns="http://www.w3.org/2000/svg">
<path opacity="0.8" d="M5.48586 9.64161C5.30552 9.64261 5.12674 9.60968 4.95979 9.54472C4.79284 9.47976 4.64098 9.38404 4.51294 9.26306L0.402019 5.34699C0.274254 5.22528 0.172905 5.08079 0.103759 4.92177C0.0346129 4.76275 -0.000976562 4.59231 -0.000976562 4.42019C-0.000976562 4.07257 0.143985 3.73919 0.402019 3.49339C0.660053 3.24758 1.01002 3.10949 1.37494 3.10949C1.73985 3.10949 2.08982 3.24758 2.34786 3.49339L5.48586 6.49571L11.3645 0.882673C11.6225 0.63687 11.9725 0.498779 12.3374 0.498779C12.7023 0.498779 13.0523 0.63687 13.3103 0.882673C13.5683 1.12848 13.7133 1.46186 13.7133 1.80948C13.7133 2.15709 13.5683 2.49048 13.3103 2.73628L6.45878 9.26306C6.33074 9.38404 6.17888 9.47976 6.01193 9.54472C5.84497 9.60968 5.6662 9.64261 5.48586 9.64161Z" fill="#91C4BC"/>
</svg>
