<svg width="14" height="10" viewBox="0 0 14 10" fill="none" xmlns="http://www.w3.org/2000/svg">
<path opacity="0.8" d="M5.48586 9.64174C5.30552 9.64273 5.12674 9.6098 4.95979 9.54484C4.79284 9.47988 4.64098 9.38417 4.51294 9.26318L0.402019 5.34711C0.274254 5.22541 0.172905 5.08092 0.103759 4.92189C0.0346129 4.76287 -0.000976562 4.59243 -0.000976562 4.42031C-0.000976562 4.07269 0.143985 3.73931 0.402019 3.49351C0.660053 3.2477 1.01002 3.10961 1.37494 3.10961C1.73985 3.10961 2.08982 3.2477 2.34786 3.49351L5.48586 6.49583L11.3645 0.882795C11.6225 0.636992 11.9725 0.498901 12.3374 0.498901C12.7023 0.498901 13.0523 0.636992 13.3103 0.882795C13.5683 1.1286 13.7133 1.46198 13.7133 1.8096C13.7133 2.15722 13.5683 2.4906 13.3103 2.7364L6.45878 9.26318C6.33074 9.38417 6.17888 9.47988 6.01193 9.54484C5.84497 9.6098 5.6662 9.64273 5.48586 9.64174Z" fill="#999999"/>
</svg>
