<svg width="12" height="13" viewBox="0 0 12 13" fill="none" xmlns="http://www.w3.org/2000/svg">
<path d="M6 6.49984C6.81667 6.49984 7.575 6.14984 8.04167 5.62484C8.625 5.0415 8.91667 4.3415 8.91667 3.58317C8.91667 2.82484 8.56667 2.00817 8.04167 1.5415C7.45833 0.958171 6.75833 0.666504 6 0.666504C5.24167 0.666504 4.425 1.0165 3.95833 1.5415C3.375 2.12484 3.08333 2.82484 3.08333 3.58317C3.08333 4.3415 3.375 5.15817 3.95833 5.62484C4.54167 6.20817 5.24167 6.49984 6 6.49984Z" fill="#767676"/>
<path d="M10.4333 8.5415C9.90833 7.95817 9.20833 7.6665 8.33333 7.6665H3.66667C2.90833 7.6665 2.20833 7.95817 1.625 8.48317C1.04167 9.00817 0.75 9.70817 0.75 10.5832V12.3332H11.25V10.5832C11.25 9.82484 10.9583 9.12484 10.4333 8.5415Z" fill="#767676"/>
<path d="M6 6.49984C6.81667 6.49984 7.575 6.14984 8.04167 5.62484C8.625 5.0415 8.91667 4.3415 8.91667 3.58317C8.91667 2.82484 8.56667 2.00817 8.04167 1.5415C7.45833 0.958171 6.75833 0.666504 6 0.666504C5.24167 0.666504 4.425 1.0165 3.95833 1.5415C3.375 2.12484 3.08333 2.82484 3.08333 3.58317C3.08333 4.3415 3.375 5.15817 3.95833 5.62484C4.54167 6.20817 5.24167 6.49984 6 6.49984Z" stroke="black" stroke-linecap="round" stroke-linejoin="round"/>
<path d="M10.4333 8.5415C9.90833 7.95817 9.20833 7.6665 8.33333 7.6665H3.66667C2.90833 7.6665 2.20833 7.95817 1.625 8.48317C1.04167 9.00817 0.75 9.70817 0.75 10.5832V12.3332H11.25V10.5832C11.25 9.82484 10.9583 9.12484 10.4333 8.5415Z" stroke="black" stroke-linecap="round" stroke-linejoin="round"/>
</svg>
