<svg width="84" height="28" viewBox="0 0 84 28" fill="none" xmlns="http://www.w3.org/2000/svg">
<g clip-path="url(#clip0_292_3080)">
<path d="M14.7651 21.4344L2.94644 9.10565H2.73109L2.70069 9.26023L2.72349 21.4344H0V6.6095H4.26131L14.679 17.4431H14.9475L14.9247 6.6095H17.671V21.4344H14.7651Z" fill="black"/>
<path d="M36.0363 27.9975C33.3331 27.9975 32.9277 26.4187 32.9277 25.4785C32.9277 24.7284 33.5307 23.6868 34.6632 23.6868C35.3953 23.6868 36.4822 24.1202 36.4822 25.3087C36.4822 25.7421 36.3682 26.0766 36.0844 26.4694L35.9882 26.6011H36.1529C38.0682 26.6011 39.2336 25.1161 40.4522 21.1349C41.4402 17.8887 42.1775 14.8908 42.826 12.2476L42.859 12.1158C43.054 11.3227 43.239 10.5725 43.4163 9.88071L43.4417 9.77681H40.4572L40.9589 8.10173H43.9205L44.0902 7.44031C44.7464 4.94669 45.813 3.09422 47.4522 1.61426C48.6556 0.514435 49.978 0 51.6172 0C53.6744 0 54.7536 1.35324 54.7536 2.68875C54.7536 3.28428 54.1583 4.39424 53.0207 4.39424C52.3063 4.39424 51.1738 3.98371 51.1738 2.88388C51.1738 2.633 51.2777 2.36438 51.3892 2.07802C51.4525 1.91583 51.5235 1.73084 51.5741 1.54838L51.5995 1.45968L51.5083 1.44447C51.4221 1.42927 51.3512 1.42167 51.2853 1.42167C49.5803 1.42167 48.3566 3.06381 47.3204 6.74342L46.9429 8.10173H50.4898L49.9451 9.77681H46.4844L46.4692 9.84017C46.231 10.7525 45.9878 11.7129 45.7395 12.6886C45.0352 15.4584 44.3081 18.317 43.6215 20.5166C42.7931 23.1749 41.6556 25.0705 40.1431 26.3122C38.7066 27.5286 37.5564 28 36.0439 28L36.0363 27.9975Z" fill="black"/>
<path d="M26.9207 21.784C25.5856 21.784 24.4658 21.5609 23.5968 21.1251C22.7278 20.6892 22.0868 20.0987 21.6967 19.3664C21.3065 18.634 21.1064 17.8205 21.1089 16.9538C21.1089 15.9833 21.3015 15.1774 21.6789 14.559C22.0539 13.9407 22.6037 13.4719 23.308 13.1627C24.0148 12.8536 24.8737 12.6964 25.8643 12.699L32.9909 12.7066V12.3695C32.9909 11.5155 32.8364 10.7933 32.5273 10.2307C32.2182 9.66558 31.7267 9.2449 31.068 8.98135C30.4093 8.72033 29.5251 8.58602 28.4357 8.58602C27.0119 8.58602 25.9605 8.81156 25.3094 9.26011C24.6583 9.70866 24.2403 10.3979 24.2074 11.072L21.3825 10.92C21.4003 9.97221 21.7169 8.97881 22.2591 8.17802C22.7607 7.43551 23.5385 6.84505 24.5646 6.42184C25.5957 5.99864 26.9131 5.78577 28.4864 5.78577C30.0597 5.78577 31.519 6.0772 32.6413 6.64738C33.7636 7.21757 34.6123 8.02597 35.1697 9.04724C35.7271 10.071 36.0083 11.3255 36.0058 12.775L35.9982 21.4418H32.9859L33.0695 19.6553C33.0897 19.1358 33.1049 18.6517 33.1201 18.1956L32.958 18.1677C32.7502 18.8418 32.4462 19.4348 32.0535 19.934C31.5899 20.5219 30.9337 20.9806 30.1028 21.2999C29.2692 21.6192 28.2001 21.7814 26.9283 21.7789L26.9207 21.784ZM26.6192 15.0887C25.958 15.0887 25.426 15.1292 25.0333 15.2129C24.6406 15.2965 24.3442 15.4587 24.1516 15.6893C23.9591 15.9224 23.8603 16.295 23.8603 16.7993C23.8603 17.41 24.1212 17.932 24.6406 18.3527C25.1574 18.7734 26.1252 18.9862 27.5186 18.9862C28.7043 18.9862 29.7227 18.8088 30.5461 18.4566C31.3695 18.1018 31.9902 17.6203 32.388 17.0273C32.7857 16.4318 32.9884 15.8109 32.9884 15.1825V15.0988L32.9048 15.0938L26.6218 15.0862L26.6192 15.0887Z" fill="black"/>
<path d="M58.5234 21.784C57.1883 21.784 56.0685 21.5635 55.197 21.1302C54.3254 20.6969 53.687 20.1039 53.2968 19.374C52.9042 18.6416 52.7065 17.8307 52.7065 16.9615C52.7065 15.9909 52.8966 15.185 53.274 14.5667C53.649 13.9484 54.1962 13.477 54.9005 13.1679C55.6074 12.8587 56.4662 12.7016 57.4568 12.7016H64.5835V12.3645C64.5835 11.5105 64.4264 10.7908 64.1173 10.2257C63.8082 9.66056 63.3167 9.23989 62.6555 8.97887C61.9968 8.71786 61.1126 8.58608 60.0207 8.58608C58.5969 8.58608 57.5455 8.81415 56.8944 9.2627C56.2433 9.71378 55.8278 10.4005 55.7949 11.0772L52.97 10.9302C52.9878 9.9824 53.3019 8.98648 53.8415 8.18821C54.3432 7.4457 55.1184 6.85271 56.147 6.4295C57.1756 6.0063 58.4955 5.79089 60.0688 5.79089C61.6421 5.79089 63.1014 6.07979 64.2263 6.64744C65.3486 7.21763 66.1998 8.02349 66.7572 9.04476C67.3146 10.0686 67.5958 11.323 67.5958 12.77V21.4368H64.5835L64.6646 19.6553C64.6823 19.1358 64.7 18.6518 64.7127 18.1956L64.5506 18.1678C64.3428 18.8418 64.0388 19.4348 63.6461 19.9341C63.185 20.522 62.5288 20.9832 61.6979 21.3025C60.8643 21.6218 59.7977 21.7865 58.5234 21.7865V21.784ZM58.2143 15.0887C57.5531 15.0887 57.0211 15.1318 56.6309 15.2155C56.2382 15.2991 55.9418 15.4613 55.7493 15.6944C55.5567 15.9276 55.4579 16.3001 55.4579 16.8044C55.4579 17.4151 55.7214 17.9372 56.2382 18.3578C56.755 18.776 57.7228 18.9888 59.1162 18.9888C60.3019 18.9888 61.3204 18.8089 62.1438 18.4541C62.9671 18.0993 63.5853 17.6178 63.9831 17.0223C64.3808 16.4268 64.581 15.8059 64.581 15.1774V15.0938L64.4974 15.0887H58.2143Z" fill="black"/>
<path d="M71.1504 21.4344V6.6095H74.112V19.0041H84.0002V21.4344H71.1504Z" fill="black"/>
</g>
<defs>
<clipPath id="clip0_292_3080">
<rect width="84" height="28" fill="white"/>
</clipPath>
</defs>
</svg>
